<svg xmlns="http://www.w3.org/2000/svg" version="1.0" width="126.000000pt" height="150.000000pt" viewBox="0 0 126.000000 150.000000" preserveAspectRatio="xMidYMid meet">

<g transform="translate(0.000000,150.000000) scale(0.100000,-0.100000)" fill="#03a9f4" stroke="none">
<path d="M592 1404 c-7 -3 -16 -13 -21 -23 -9 -15 -4 -17 44 -17 52 1 54 2 41 21 -13 20 -41 28 -64 19z" fill="#03a9f4"/>
<path d="M494 1326 c-150 -50 -274 -191 -291 -334 l-6 -52 202 0 201 0 0 35 c0 25 -6 37 -21 45 -33 18 -49 71 -49 165 0 78 2 85 20 85 17 0 20 -8 23 -72 l3 -73 2 73 c2 56 5 72 17 72 11 0 15 -20 18 -97 l3 -98 2 98 c2 77 5 97 17 97 11 0 15 -17 18 -72 l3 -73 2 73 c2 66 4 72 23 72 20 0 21 -4 17 -106 -3 -105 -3 -106 -35 -135 -24 -20 -33 -37 -33 -59 l0 -30 205 0 c113 0 205 3 205 8 -2 30 -32 126 -52 167 -43 83 -101 140 -186 182 -70 35 -83 38 -171 40 -58 1 -112 -3 -137 -11z" fill="#03a9f4"/>
<path d="M122 893 c3 -17 35 -18 493 -18 458 0 490 1 493 18 3 16 -26 17 -493 17 -467 0 -496 -1 -493 -17z" fill="#03a9f4"/>
<path d="M1050 480 c0 -5 3 -10 8 -11 32 -3 48 -11 63 -30 11 -14 18 -18 23 -10 11 16 -39 61 -69 61 -14 0 -25 -4 -25 -10z" fill="#03a9f4"/>
<path d="M1080 390 c0 -33 4 -60 10 -60 6 0 10 27 10 60 0 33 -4 60 -10 60 -6 0 -10 -27 -10 -60z" fill="#03a9f4"/>
<path d="M190 428 c0 -4 9 -8 20 -8 11 0 20 4 20 8 0 4 -9 8 -20 8 -11 0 -20 -4 -20 -8z" fill="#03a9f4"/>
<path d="M780 430 c0 -5 5 -10 10 -10 6 0 10 5 10 10 0 6 -4 10 -10 10 -5 0 -10 -4 -10 -10z" fill="#03a9f4"/>
<path d="M974 424 c3 -8 2 -12 -3 -9 -5 3 -12 1 -16 -5 -4 -6 5 -10 20 -10 23 0 24 2 15 20 -13 24 -25 27 -16 4z" fill="#03a9f4"/>
<path d="M140 366 c0 -25 -6 -40 -20 -48 -11 -7 -20 -16 -20 -20 0 -15 19 -8 39 13 12 13 26 19 36 16 8 -4 26 -2 40 3 19 7 25 17 25 40 0 16 -4 30 -10 30 -5 0 -10 -11 -10 -25 0 -21 -5 -25 -30 -25 -23 0 -30 5 -30 19 0 11 -4 23 -10 26 -6 4 -10 -8 -10 -29z" fill="#03a9f4"/>
<path d="M310 365 c0 -24 -6 -39 -20 -47 -11 -7 -20 -16 -20 -20 0 -15 27 -8 45 12 12 13 25 18 37 14 28 -8 68 22 68 51 0 31 -17 33 -22 3 -2 -18 -10 -23 -33 -23 -23 0 -31 5 -33 23 -5 35 -22 26 -22 -13z" fill="#03a9f4"/>
<path d="M527 393 c-11 -11 -8 -48 5 -61 20 -20 105 -15 128 8 11 11 20 25 20 30 0 6 9 10 20 10 11 0 20 5 20 10 0 6 -11 10 -25 10 -17 0 -29 -8 -37 -25 -10 -22 -17 -25 -65 -25 -40 0 -53 4 -53 15 0 11 12 15 45 15 25 0 45 5 45 10 0 11 -93 14 -103 3z" fill="#03a9f4"/>
<path d="M780 366 c0 -24 -6 -39 -21 -49 -14 -10 -17 -17 -9 -22 6 -4 20 1 32 12 26 23 65 27 171 17 69 -7 107 11 107 51 0 33 -18 32 -26 0 -6 -25 -9 -26 -73 -23 -60 3 -66 5 -69 26 -2 12 -7 22 -12 22 -5 0 -10 -10 -12 -22 -4 -33 -55 -38 -60 -7 -5 39 -28 35 -28 -5z" fill="#03a9f4"/>
<path d="M380 299 c0 -5 5 -7 10 -4 6 3 10 8 10 11 0 2 -4 4 -10 4 -5 0 -10 -5 -10 -11z" fill="#03a9f4"/>
<path d="M844 294 c3 -9 6 -18 6 -20 0 -2 5 -4 11 -4 6 0 8 7 5 16 -3 8 -2 12 3 9 5 -3 12 -1 16 5 4 6 -5 10 -20 10 -21 0 -26 -4 -21 -16z" fill="#03a9f4"/>
<path d="M828 203 c7 -3 16 -2 19 1 4 3 -2 6 -13 5 -11 0 -14 -3 -6 -6z" fill="#03a9f4"/>
<path d="M483 155 c0 -22 2 -30 4 -17 2 12 2 30 0 40 -3 9 -5 -1 -4 -23z" fill="#03a9f4"/>
<path d="M832 150 c0 -19 2 -27 5 -17 2 9 2 25 0 35 -3 9 -5 1 -5 -18z" fill="#03a9f4"/>
<path d="M1005 161 c-6 -11 1 -15 19 -12 5 1 6 -7 3 -19 -6 -23 -4 -25 12 -7 8 11 6 18 -8 31 -12 11 -21 14 -26 7z" fill="#03a9f4"/>
<path d="M975 150 c-9 -15 4 -30 23 -29 15 1 14 2 -1 6 -11 3 -16 11 -13 19 6 16 0 19 -9 4z" fill="#03a9f4"/>
<path d="M321 134 c0 -11 3 -14 6 -6 3 7 2 16 -1 19 -3 4 -6 -2 -5 -13z" fill="#03a9f4"/>
<path d="M389 122 c-3 -20 -2 -29 4 -23 5 5 7 19 5 32 -3 20 -5 19 -9 -9z" fill="#03a9f4"/>
<path d="M451 134 c0 -11 3 -14 6 -6 3 7 2 16 -1 19 -3 4 -6 -2 -5 -13z" fill="#03a9f4"/>
<path d="M561 138 c-1 -10 6 -18 15 -18 10 0 14 -5 10 -16 -3 -8 -2 -12 4 -9 15 9 12 35 -4 35 -8 0 -17 6 -19 13 -3 7 -6 5 -6 -5z" fill="#03a9f4"/>
<path d="M630 123 c0 -21 3 -24 9 -14 5 8 7 20 4 28 -8 21 -13 15 -13 -14z" fill="#03a9f4"/>
<path d="M686 135 c-3 -8 -1 -15 4 -15 6 0 10 7 10 15 0 8 -2 15 -4 15 -2 0 -6 -7 -10 -15z" fill="#03a9f4"/>
<path d="M730 135 c0 -8 4 -15 10 -15 5 0 7 7 4 15 -4 8 -8 15 -10 15 -2 0 -4 -7 -4 -15z" fill="#03a9f4"/>
<path d="M796 133 c-6 -14 -5 -15 5 -6 7 7 10 15 7 18 -3 3 -9 -2 -12 -12z" fill="#03a9f4"/>
<path d="M888 121 c-5 -36 -3 -38 11 -13 5 10 6 24 2 31 -6 9 -10 3 -13 -18z" fill="#03a9f4"/>
<path d="M936 135 c-3 -8 -1 -15 4 -15 6 0 10 7 10 15 0 8 -2 15 -4 15 -2 0 -6 -7 -10 -15z" fill="#03a9f4"/>
<path d="M530 121 c0 -11 4 -22 9 -25 4 -3 6 6 3 19 -5 30 -12 33 -12 6z" fill="#03a9f4"/>
</g>
</svg>